<?xml version="1.0" standalone="no"?>
<!DOCTYPE svg PUBLIC "-//W3C//DTD SVG 20010904//EN"
 "http://www.w3.org/TR/2001/REC-SVG-20010904/DTD/svg10.dtd">
<svg version="1.0" xmlns="http://www.w3.org/2000/svg"
 width="1024.000000pt" height="1024.000000pt" viewBox="0 0 1024.000000 1024.000000"
 preserveAspectRatio="xMidYMid meet">
<metadata>
Created by potrace 1.14, written by Peter Selinger 2001-2017
</metadata>
<g transform="translate(0.000000,1024.000000) scale(0.100000,-0.100000)"
fill="#000000" stroke="none">
<path d="M1380 10224 c-47 -8 -97 -16 -112 -18 -15 -3 -54 -12 -85 -21 -32
-10 -65 -18 -73 -20 -31 -7 -197 -78 -255 -109 -268 -145 -490 -357 -637 -609
-93 -159 -180 -409 -205 -592 -10 -77 -11 -7366 0 -7464 4 -41 10 -78 12 -81
2 -4 7 -22 10 -41 35 -204 158 -467 308 -659 58 -73 197 -214 254 -257 21 -15
40 -30 43 -34 3 -3 41 -29 85 -58 150 -98 330 -175 500 -215 102 -25 111 -26
179 -34 83 -10 7378 -9 7441 1 104 15 122 19 180 34 358 90 672 299 894 593
146 194 242 412 294 664 l22 111 0 3690 c0 2030 -4 3715 -9 3745 -4 30 -9 65
-11 77 -17 119 -80 301 -157 450 -230 449 -651 753 -1166 843 -103 18 -238 19
-3767 18 -3085 0 -3673 -2 -3745 -14z"/>
</g>
</svg>
